<svg width="31.799" height="32" viewBox="0 0 8.413 8.467" xmlns="http://www.w3.org/2000/svg"><path style="fill:#93ad18;fill-opacity:1;stroke-width:1;stop-color:#000" d="M152.19 153.334a6.81 6.81 0 0 1-2.514 2.412l-.05.05a6.81 6.81 0 0 1 .242 1.761 6.81 6.81 0 0 1 0 .01 6.81 6.81 0 0 1 0 .011 6.81 6.81 0 0 1-.242 1.762l.05.05a6.81 6.81 0 0 1 2.513 2.411 6.81 6.81 0 0 1 1.657-.213 6.81 6.81 0 0 1 1.603.191 6.81 6.81 0 0 1 2.59-2.44 6.81 6.81 0 0 1-.24-1.76 6.81 6.81 0 0 1 0-.011 6.81 6.81 0 0 1 0-.01 6.81 6.81 0 0 1 .24-1.76 6.81 6.81 0 0 1-2.59-2.441 6.81 6.81 0 0 1-1.603.191 6.81 6.81 0 0 1-1.657-.214z" transform="translate(-149.626 -153.334)"/><text xml:space="preserve" style="font-style:normal;font-weight:400;font-size:4.9042px;line-height:1.25;font-family:sans-serif;fill:#fff;fill-opacity:1;stroke:none;stroke-width:.264583" x="150.172" y="159.319" transform="translate(-149.626 -153.334)"><tspan style="font-style:normal;font-variant:normal;font-weight:400;font-stretch:normal;font-family:'Noto Serif';-inkscape-font-specification:'Noto Serif';fill:#fff;stroke-width:.264583" x="150.172" y="159.319"><tspan style="font-style:normal;font-variant:normal;font-weight:400;font-stretch:normal;font-family:'Noto Serif';-inkscape-font-specification:'Noto Serif';fill:#fff;fill-opacity:1;stroke-width:.264583" rotate="0 0 0">HR</tspan></tspan></text></svg>